PathFileType	4	(X/Y/Z)	RBDS014\RBDS014runT35.trc
DataRate	CameraRate	NumFrames	NumMarkers	Units	OrigDataRate	OrigDataStartFrame	OrigNumFrames
150.000000	150.000000	4	33	mm	150.000000	0	4500
Frame#	Time	L.ASIS			L.Heel.Bottom			L.Heel.Lateral			L.Heel.Top			L.Iliac.Crest			L.MT1			L.MT5			L.PSIS			L.Shank.Bottom.Lateral			L.Shank.Bottom.Medial			L.Shank.Top.Lateral			L.Shank.Top.Medial			L.Thigh.Bottom.Lateral			L.Thigh.Bottom.Medial			L.Thigh.Top.Lateral			L.Thigh.Top.Medial			R.ASIS			R.ASY			R.Heel.Bottom			R.Heel.Lateral			R.Heel.Top			R.Iliac.Crest			R.MT1			R.MT5			R.PSIS			R.Shank.Bottom.Lateral			R.Shank.Bottom.Medial			R.Shank.Top.Lateral			R.Shank.Top.Medial			R.Thigh.Bottom.Lateral			R.Thigh.Bottom.Medial			R.Thigh.Top.Lateral			R.Thigh.Top.Medial			
		X1	Y1	Z1	X2	Y2	Z2	X3	Y3	Z3	X4	Y4	Z4	X5	Y5	Z5	X6	Y6	Z6	X7	Y7	Z7	X8	Y8	Z8	X9	Y9	Z9	X10	Y10	Z10	X11	Y11	Z11	X12	Y12	Z12	X13	Y13	Z13	X14	Y14	Z14	X15	Y15	Z15	X16	Y16	Z16	X17	Y17	Z17	X18	Y18	Z18	X19	Y19	Z19	X20	Y20	Z20	X21	Y21	Z21	X22	Y22	Z22	X23	Y23	Z23	X24	Y24	Z24	X25	Y25	Z25	X26	Y26	Z26	X27	Y27	Z27	X28	Y28	Z28	X29	Y29	Z29	X30	Y30	Z30	X31	Y31	Z31	X32	Y32	Z32	X33	Y33	Z33	

1	0	2152.160063349407	1061.406583911761	906.1800645745241	1692.26583902804	68.52276722547003	1005.576012161915	1717.944354843963	83.07498600195731	962.9510167147977	1711.548487817045	115.7621478728754	1002.990753914215	2085.727040352669	1125.02878616041	870.8856358747665	1922.925712939284	47.03602864987569	1046.151912050677	1879.054778062033	40.07963527876597	929.9796087854286	1982.583600476709	1087.945099711153	995.2996896640236	1835.271084907327	200.1569626288457	929.3804099394466	1797.686821417384	227.6226061867751	959.8848328695053	1866.730627418059	269.8854252205939	905.8370432251896	1831.166707731763	297.1901130529604	935.7838054282535	2052.186806883178	682.1931770628088	853.321338885136	1991.656387365518	681.6235008414516	893.4121966787861	2040.236071151273	791.594899655675	843.0628405202242	1986.086670249897	791.8412432889611	884.9439388776385	2177.996000217546	1056.068737398786	1149.704724795635	1951.627822663716	350.2988352365106	1080.053899714384	1813.809208043723	503.6439327463066	1062.815055354185	1843.622304107799	493.5924383828003	1102.26116655926	1863.938328303529	515.9712646882315	1060.103540041492	2116.386038880819	1127.029149073481	1180.761313855597	1919.823717626628	296.1203176259556	1030.720158581013	1898.034850045637	328.1758502754561	1145.747204674591	2000.115084643046	1087.391770176285	1086.298201506776	1994.887098675383	506.7132170477423	1120.69080797183	1989.443088309816	537.9317774311727	1080.115932806159	2071.792264979407	539.0329266022246	1134.240041179299	2062.488272641949	571.1497877063565	1093.056854515199	2310.131281356229	705.1679657128033	1174.976551200132	2256.641498136982	665.7887849925504	1143.702623277061	2237.489727730426	784.5903114855793	1194.995233329041	2185.56104468812	746.9316474583288	1167.020997304455	
2	0.006666666666666667	2153.31763780254	1064.948830962569	905.6907282475196	1671.741362827576	77.28680750761075	1005.052522385714	1697.985598966788	90.20629980725961	962.2317185006854	1692.809775212198	123.6020922893308	1001.866338407194	2089.74557529792	1129.152280085524	871.4884856808148	1900.48065327442	46.23262407093294	1046.006118303039	1856.480720684891	40.21981319028106	929.9837939638832	1984.423949821251	1092.870023807171	995.9381861876697	1816.616436574887	206.3578783721154	928.8050643997777	1779.249894594389	233.8198727083533	959.7359251995694	1848.232513990089	276.0926051077541	905.5015004013059	1812.833549605208	303.423924524588	935.7129290066835	2041.124680482293	686.6875521338688	854.2773956996191	1981.282285599126	688.3258770896629	895.1574056546824	2033.044735487257	796.2966898560607	843.9754208010527	1979.336040149485	798.6239373843895	886.310628550965	2180.601607552216	1062.296393328507	1148.412655019798	1975.72138529675	338.2279044847804	1080.085170078895	1828.681679218891	481.3940297208998	1062.587979831969	1859.035927216979	473.6438188910746	1102.031210278099	1877.728078709311	497.0348654082464	1059.844306947961	2117.845389933135	1133.027817808058	1180.529514120441	1948.435057130662	282.4012490133209	1031.504342432586	1924.436260487029	313.4517019113051	1146.303107809877	2001.959483134243	1093.672091231954	1086.965972889195	2008.854736195541	496.1290450868118	1120.572271261757	2001.613497146795	527.104733025145	1080.214519793197	2083.453546121705	533.0675133066268	1134.29373601082	2071.902237312406	564.7486180021222	1093.386153536085	2316.510643518975	717.0079985806684	1174.775563974214	2263.571391938113	676.3709854537202	1144.19880087297	2242.268417174681	794.6462924611006	1195.57443492195	2191.090636946035	755.7627691996156	1168.078325026937	
3	0.01333333333333333	2154.58275885167	1068.476365951901	905.2655729443309	1651.460435728796	86.2858998700336	1004.481143228469	1678.266998522455	97.54535996739099	961.484737731703	1674.334610644534	131.6295833074153	1000.723236145535	2093.838341363275	1133.34596388881	872.181858980118	1878.132482323	45.48944803246472	1045.873275045206	1834.012581149052	40.47242880972786	929.9560399414806	1986.344579188926	1097.818800256879	996.5175347070382	1798.1576790285	212.6998691607117	928.1937309766515	1761.047277033169	240.1287371274647	959.5932219667036	1829.92043212187	282.4578544133374	905.1628780065311	1794.713069074727	309.7818890132486	935.6782118789421	2030.235674920489	691.2696081637177	855.208880921848	1971.092910651407	695.097566600861	896.867058426897	2026.00171436312	801.0585139323719	844.863475143021	1972.763920407771	805.434748267638	887.6657749385399	2183.192273211035	1068.53040391532	1147.152445237884	2000.020233775498	326.2767550910706	1080.098047121719	1843.985685659918	459.0526029267715	1062.297881389472	1874.815749043434	453.6079734253724	1101.739603898309	1891.870836327927	477.9828219834755	1059.527617987872	2119.364872011681	1139.06068721857	1180.314797633057	1977.26992627722	268.8929123186644	1032.238375258861	1951.068869173628	298.8708685247512	1146.810093050587	2003.858092486492	1099.975118940811	1087.582872609864	2022.993954987806	485.4545355564254	1120.416349185745	2013.955104356447	516.1349904284751	1080.263808561012	2095.193565037094	526.9600089002107	1134.310681610571	2081.421498577939	558.1419258466809	1093.667275130779	2322.666774955169	728.6510241034182	1174.556089798765	2270.250395794782	686.7959500791375	1144.690440008759	2246.903560864906	804.5774734028148	1196.119350239248	2196.438749879846	764.5169383233109	1169.114923424398	
4	0.02	2156.051335126552	1071.97616361334	904.966471466888	1631.679019021573	95.73858257956765	1003.828964631133	1659.028407207035	105.2841812021005	960.69030187239	1656.396354731226	140.0103924744453	999.5475646523872	2098.073705258748	1137.660377171667	873.0372844277809	1855.964570516294	44.85147462967429	1045.746236273973	1811.731051743235	40.93408070658989	929.8639674920572	1988.414855786993	1102.816388024118	996.982643963816	1780.082366960133	219.3011192204367	927.5084058575594	1743.297621957906	246.6364077592426	959.4571835394642	1811.96974558609	289.1196165629077	904.8176438695842	1777.00351029386	316.3681731148561	935.7142553256671	2019.661770556526	696.0407918166628	856.1028000252282	1961.245260968976	702.0237667346504	898.5226516647142	2019.227760408399	805.9536401488203	845.7128935325151	1966.528785673251	812.3174895805919	889.0146740001802	2185.747375663988	1074.774849656426	1145.962178536451	2024.736493852687	314.5272031795706	1080.071007646277	1860.121195330414	436.5151785352203	1061.891037022868	1891.305395939182	433.3825104137758	1101.334112896252	1906.699015661229	458.6930832736941	1059.105324178583	2120.987942897975	1145.163913632728	1180.130524532593	2006.559428710787	255.7591329351032	1032.870555157193	1978.165224424966	284.5280035888156	1147.219587570114	2005.855357382302	1106.31933843673	1088.099989909724	2037.469529718104	474.5912318757609	1120.189853501152	2026.641049575483	504.8779513182346	1080.215209613873	2107.090642369455	520.5708969300387	1134.258206787537	2091.15790023061	551.1352816485834	1093.851339139326	2328.408560975834	739.9155142971357	1174.298135435173	2276.461249951927	696.9147149024637	1145.173950857569	2251.271263551869	814.266528640759	1196.596793108225	2201.446873457768	773.1156282734179	1170.112078212465	
